<svg viewBox="0 0 100 74" xmlns="http://www.w3.org/2000/svg">
  <path d="m100 67.1455644v-60.13326037c0-1.86994779-.7935046-3.50615201-2.3805142-4.90861282s-3.161755-2.10369121-4.7242358-2.10369121h-86.72872438c-1.71701189 0-3.17401916.66206918-4.37102174 1.98620758-1.19700257 1.3241384-1.79550388 2.99950369-1.79550388 5.02609645v60.13326037c0 2.024145.5850105 3.6725874 1.75503146 4.9453265 1.17002096 1.2727394 2.64051904 1.9091091 4.41149416 1.9091091h86.72872438c1.5624808 0 3.1372262-.6620692 4.7242358-1.9862075 1.5870096-1.3241384 2.3805142-2.946881 2.3805142-4.8682281zm-77.2839325-50.3968047v3.0362173c0 .5702854-.2992506 1.1540319-.8977519 1.7512403-.5985013.5972088-1.2104934.895813-1.8359763.895813h-5.6992531c-.6769933 0-1.3147405-.2851427-1.9132419-.8554278-.5985012-.570285-.8977519-1.1674934-.8977519-1.7916255v-3.0362173c0-.675531.3127415-1.5199443.9382244-2.5332408.6254829-1.0132962 1.2497394-1.5199443 1.8727694-1.5199443h5.6992531c.5715197 0 1.170021.5066481 1.7955039 1.5199443.6254829 1.0132965.9382243 1.8577098.9382243 2.5332408zm65.1054125 0v3.0362173c0 .6241321-.2734958 1.2213405-.8204865 1.7916255-.5469912.5702851-1.1847381.8554278-1.913242.8554278h-50.4286396c-.7800142 0-1.4435165-.2851427-1.9905073-.8554278-.5469911-.570285-.8204865-1.1674934-.8204865-1.7916255v-3.0362173c0-.72693.2857596-1.5835816.8572796-2.5699544.5715196-.9863729 1.2215311-1.4795595 1.950035-1.4795595h50.4286396c.6769931 0 1.3012496.4931866 1.8727692 1.4795595.57152.9863728.8572797 1.8430244.8572797 2.5699544zm-65.1054125 19.5500098v3.0362177c0 .570285-.2992506 1.1417939-.8977519 1.7145267s-1.2104934.8578751-1.8359763.8554585h-5.6992531c-.6769933 0-1.3147405-.2851735-1.9132419-.8554585-.5985012-.570285-.8977519-1.1417939-.8977519-1.7145267v-3.0362177c0-.72693.3127415-1.5970431.9382244-2.6103393s1.2497394-1.5199443 1.8727694-1.5199443h5.6992531c.5715197 0 1.170021.5188861 1.7955039 1.5566579.6254829 1.0377722.9382243 1.8944234.9382243 2.5699544zm65.1054125 0v3.0362177c0 .570285-.2734958 1.1417939-.8204865 1.7145267-.5469912.5727328-1.1847381.8578751-1.913242.8554585h-50.4286396c-.7800142 0-1.4435165-.2851735-1.9905073-.8554585-.5469911-.570285-.8204865-1.1417939-.8204865-1.7145267v-3.0362177c0-.778329.2857596-1.66068.8572796-2.6470529.5715196-.9863728 1.2215311-1.4795594 1.950035-1.4795594h50.4286396c.6769931 0 1.3012496.5066481 1.8727692 1.5199443.57152 1.0132965.8572797 1.8834096.8572797 2.6103396zm-65.1054125 19.7078786v2.6470528c0 .6755311-.2992506 1.3119008-.8977519 1.9091092-.5985013.5972083-1.2104934.8958125-1.8359763.8958125h-5.6992531c-.6769933 0-1.3147405-.2986042-1.9132419-.8958125-.5985012-.5972084-.8977519-1.2335781-.8977519-1.9091092v-2.6470528c0-.7783289.2992507-1.6741415.8977519-2.6874381.5985014-1.0132962 1.2362486-1.5199442 1.9132419-1.5199442h5.6992531c.5715197 0 1.170021.506648 1.7955039 1.5199442.6254829 1.0132966.9382243 1.9091092.9382243 2.6874381zm65.1054125 0v2.6470528c0 .6755311-.2734958 1.3119008-.8204865 1.9091092-.5469912.5972083-1.1847381.8958125-1.913242.8958125h-50.4286396c-.7800142 0-1.4435165-.2986042-1.9905073-.8958125-.5469911-.5972084-.8204865-1.2335781-.8204865-1.9091092v-2.6470528c0-.8321756.2857596-1.7414501.8572796-2.7278229.5715196-.9863728 1.2215311-1.4795594 1.950035-1.4795594h50.4286396c.6769931 0 1.3012496.506648 1.8727692 1.5199442.57152 1.0132966.8572797 1.9091092.8572797 2.6874381z"/>
</svg>
